#!OML:ASF X:\für Bonn\!DataBase\2005_08_12_Daniel\c3d\Daniel.ASF
:FULLY-SPECIFIED
:DEGREES
113
root 1.09634 10.0257 -0.709761 39.1712 -87.5163 -58.8781
lowerback 55.8221 -4.3958 6.01564
upperback 3.44352 -3.40372 -1.90372
thorax -18.0006 -2.27294 -2.96379
lowerneck 11.4798 2.04159 -1.87293
upperneck -6.75897 2.35778 -0.820034
head -4.3248 1.25736 -0.114188
rclavicle 2.00773e-014 -4.77083e-015
rhumerus 64.8951 -2.00996 -104.082
rradius 9.0539
rwrist 68.5908
rhand -24.112 13.4997
rfingers 7.12502
rthumb 2.36918 -16.4669
lclavicle 2.00773e-014 -4.77083e-015
lhumerus 66.8751 10.5123 111.259
lradius 9.4662
lwrist -91.403
lhand -24.5546 -3.04841
lfingers 7.12502
lthumb 1.94169 26.9225
rfemur -53.3425 -46.0841 -8.01067
rtibia 130.026
rfoot -11.366 33.6799
rtoes -12.725
lfemur -60.0791 41.5547 4.79653
ltibia 129.068
lfoot -21.7042 -32.0406
ltoes -0.983199
114
root 1.09245 10.2091 -0.706722 38.8394 -87.4728 -58.1585
lowerback 55.3702 -4.38788 6.03986
upperback 3.40835 -3.37591 -1.87265
thorax -17.9966 -2.25558 -2.96574
lowerneck 11.2925 2.03241 -1.91013
upperneck -6.56004 2.34972 -0.782366
head -4.2159 1.25067 -0.0902128
rclavicle 1.00386e-014 -6.75868e-015
rhumerus 64.931 -2.008 -104.145
rradius 8.95808
rwrist 68.5437
rhand -24.0032 13.3193
rfingers 7.12502
rthumb 2.47425 -16.6461
lclavicle 1.00386e-014 -6.75868e-015
lhumerus 66.9765 10.3169 111.262
lradius 9.42958
lwrist -91.2594
lhand -24.6088 -2.80026
lfingers 7.12502
lthumb 1.88943 27.1711
rfemur -53.7083 -43.6069 -5.90457
rtibia 128.57
rfoot -10.873 31.691
rtoes -12.8709
lfemur -59.67 39.7655 3.62029
ltibia 127.59
lfoot -21.598 -30.6296
ltoes -0.995524
115
root 1.08737 10.3985 -0.703763 38.9514 -87.4223 -57.8969
lowerback 54.9151 -4.37219 6.05258
upperback 3.38923 -3.34297 -1.8124
thorax -17.9668 -2.23585 -2.9318
lowerneck 11.064 2.02328 -2.01205
upperneck -6.38681 2.33157 -0.757853
head -4.10924 1.24151 -0.058293
rclavicle 9.0447e-015 -5.1684e-015
rhumerus 64.9999 -1.97284 -104.182
rradius 8.89642
rwrist 68.4254
rhand -23.8947 13.1953
rfingers 7.12502
rthumb 2.57902 -16.7689
lclavicle 9.0447e-015 -5.1684e-015
lhumerus 67.1895 10.1205 111.309
lradius 9.32363
lwrist -91.0844
lhand -24.5718 -2.60403
lfingers 7.12502
lthumb 1.92517 27.367
rfemur -53.8325 -41.1513 -4.00864
rtibia 127.04
rfoot -10.4114 29.739
rtoes -12.9316
lfemur -59.1473 38.046 2.57645
ltibia 126.058
lfoot -21.5407 -29.2336
ltoes -1.11993
116
root 1.0806 10.592 -0.700202 39.2872 -87.3831 -57.8816
lowerback 54.4887 -4.36021 6.08325
upperback 3.34348 -3.30497 -1.7758
thorax -17.9727 -2.21534 -2.93528
lowerneck 10.8819 2.00193 -2.03607
upperneck -6.18655 2.30516 -0.765158
head -4.0009 1.22749 -0.0508477
rclavicle -6.36111e-015 1.15295e-014
rhumerus 65.0073 -1.96724 -104.241
rradius 8.89451
rwrist 68.3264
rhand -23.7897 13.0767
rfingers 7.12502
rthumb 2.68051 -16.8862
lclavicle -6.36111e-015 1.15295e-014
lhumerus 67.3776 9.87648 111.344
lradius 9.20134
lwrist -90.9116
lhand -24.4035 -2.40163
lfingers 7.12502
lthumb 2.08766 27.5679
rfemur -53.7439 -38.8048 -2.33897
rtibia 125.457
rfoot -10.0768 27.8754
rtoes -13.0253
lfemur -58.4804 36.4231 1.65611
ltibia 124.462
lfoot -21.4955 -27.9378
ltoes -1.26081
117
root 1.07305 10.7892 -0.697019 39.3044 -87.3346 -57.5666
lowerback 54.0437 -4.35442 6.12057
upperback 3.32055 -3.27572 -1.74353
thorax -17.9469 -2.19889 -2.94312
lowerneck 10.6556 1.97767 -2.07305
upperneck -5.98218 2.27507 -0.765749
head -3.88306 1.21149 -0.0382037
rclavicle -1.53064e-014 1.19271e-014
rhumerus 65.0236 -1.96519 -104.304
rradius 8.93389
rwrist 68.2906
rhand -23.7383 12.9413
rfingers 7.12502
rthumb 2.73008 -17.0209
lclavicle -1.53064e-014 1.19271e-014
lhumerus 67.5823 9.63227 111.372
lradius 9.06852
lwrist -90.8325
lhand -24.1248 -2.13235
lfingers 7.12502
lthumb 2.35681 27.8344
rfemur -53.4746 -36.6104 -0.87036
rtibia 123.811
rfoot -9.78441 26.1198
rtoes -13.1685
lfemur -57.7449 34.8139 0.807389
ltibia 122.808
lfoot -21.4015 -26.7015
ltoes -1.45748
118
root 1.06354 10.988 -0.693326 39.1813 -87.3186 -57.1365
lowerback 53.599 -4.32397 6.11853
upperback 3.298 -3.23927 -1.70336
thorax -17.9173 -2.17734 -2.92799
lowerneck 10.4813 1.94858 -2.12157
upperneck -5.80345 2.23394 -0.78253
head -3.7851 1.19119 -0.0290985
rclavicle 1.13307e-014 5.56597e-015
rhumerus 65.0185 -1.94332 -104.354
rradius 8.9821
rwrist 68.2521
rhand -23.651 12.8151
rfingers 7.12502
rthumb 2.81438 -17.146
lclavicle 1.13307e-014 5.56597e-015
lhumerus 67.7387 9.39356 111.422
lradius 9.01809
lwrist -90.7829
lhand -23.657 -1.88729
lfingers 7.12502
lthumb 2.80863 28.074
rfemur -53.0718 -34.5539 0.39049
rtibia 122.135
rfoot -9.51863 24.4421
rtoes -13.2894
lfemur -56.8847 33.3121 0.0283308
ltibia 121.107
lfoot -21.286 -25.5424
ltoes -1.57919
119
root 1.05278 11.1899 -0.689225 39.4362 -87.2844 -57.0922
lowerback 53.1201 -4.30843 6.13975
upperback 3.28984 -3.2121 -1.66919
thorax -17.8644 -2.16084 -2.92674
lowerneck 10.244 1.92237 -2.12187
upperneck -5.5729 2.2038 -0.826288
head -3.65576 1.17573 -0.0372496
rclavicle -9.34288e-015 2.3059e-014
rhumerus 65.0226 -1.93624 -104.418
rradius 9.01326
rwrist 68.2662
rhand -23.6199 12.6792
rfingers 7.12502
rthumb 2.84447 -17.2815
lclavicle -9.34288e-015 2.3059e-014
lhumerus 67.8842 9.18791 111.442
lradius 8.98859
lwrist -90.7951
lhand -23.0561 -1.62839
lfingers 7.12502
lthumb 3.38888 28.3244
rfemur -52.5476 -32.6534 1.53499
rtibia 120.407
rfoot -9.24519 22.8736
rtoes -13.4146
lfemur -55.9902 31.8798 -0.656129
ltibia 119.37
lfoot -21.1367 -24.4406
ltoes -1.70178
120
root 1.04147 11.3922 -0.684328 39.8297 -87.2494 -57.2189
lowerback 52.6628 -4.29091 6.17391
upperback 3.27816 -3.17295 -1.62708
thorax -17.8144 -2.14055 -2.92807
lowerneck 10.0416 1.88226 -2.15718
upperneck -5.35133 2.14902 -0.873824
head -3.53746 1.14891 -0.0394132
rclavicle -6.95746e-015 -7.95139e-016
rhumerus 65.0074 -1.929 -104.462
rradius 9.0564
rwrist 68.3211
rhand -23.5975 12.4789
rfingers 7.12502
rthumb 2.86608 -17.4816
lclavicle -6.95746e-015 -7.95139e-016
lhumerus 67.9792 8.9856 111.463
lradius 8.99874
lwrist -90.8
lhand -22.4222 -1.4054
lfingers 7.12502
lthumb 4.00109 28.5368
rfemur -51.8826 -30.8836 2.53643
rtibia 118.637
rfoot -8.91754 21.419
rtoes -13.3941
lfemur -55.0169 30.5183 -1.25224
ltibia 117.605
lfoot -20.9781 -23.4235
ltoes -1.87698
121
root 1.02912 11.5929 -0.677565 39.9178 -87.2205 -57.0415
lowerback 52.1707 -4.28903 6.21473
upperback 3.27426 -3.15589 -1.60435
thorax -17.7509 -2.12936 -2.94459
lowerneck 9.84057 1.85336 -2.1463
upperneck -5.14129 2.11382 -0.945931
head -3.42322 1.13175 -0.0592232
rclavicle 1.14301e-014 1.59028e-015
rhumerus 65.0012 -1.89408 -104.538
rradius 9.07367
rwrist 68.3507
rhand -23.4937 12.3028
rfingers 7.12502
rthumb 2.96633 -17.6563
lclavicle 1.14301e-014 1.59028e-015
lhumerus 68.0096 8.827 111.46
lradius 9.0911
lwrist -90.8093
lhand -21.742 -1.23096
lfingers 7.12502
lthumb 4.65791 28.6978
rfemur -51.1588 -29.3129 3.39803
rtibia 116.855
rfoot -8.62557 20.0833
rtoes -13.4674
lfemur -54.022 29.2158 -1.82248
ltibia 115.822
lfoot -20.7369 -22.5026
ltoes -1.8405
122
root 1.0157 11.7923 -0.670288 40.0569 -87.1939 -56.9403
lowerback 51.6599 -4.27966 6.25172
upperback 3.29065 -3.13459 -1.57334
thorax -17.6559 -2.11627 -2.95304
lowerneck 9.65676 1.82472 -2.17282
upperneck -4.95816 2.07538 -0.994543
head -3.32308 1.1129 -0.0649377
rclavicle -2.98177e-015 2.38542e-015
rhumerus 65.002 -1.8682 -104.595
rradius 9.09991
rwrist 68.3215
rhand -23.2869 12.1471
rfingers 7.12502
rthumb 3.16607 -17.8092
lclavicle -2.98177e-015 2.38542e-015
lhumerus 68.0495 8.68192 111.466
lradius 9.14531
lwrist -90.8262
lhand -21.1199 -1.02116
lfingers 7.12502
lthumb 5.25858 28.8936
rfemur -50.3278 -27.8729 4.13976
rtibia 115.051
rfoot -8.33565 18.9001
rtoes -13.5173
lfemur -52.9811 27.9917 -2.32977
ltibia 114.025
lfoot -20.5025 -21.6423
ltoes -1.8381
123
root 1.00103 11.9897 -0.662661 40.2146 -87.1695 -56.8681
lowerback 51.1408 -4.27019 6.29127
upperback 3.2982 -3.11404 -1.55412
thorax -17.5688 -2.10357 -2.97631
lowerneck 9.41907 1.78681 -2.11696
upperneck -4.68315 2.03496 -1.08451
head -3.17954 1.09179 -0.0973184
rclavicle -2.48481e-015 5.1684e-015
rhumerus 64.9569 -1.87991 -104.662
rradius 9.15215
rwrist 68.3533
rhand -23.0287 11.9477
rfingers 7.12502
rthumb 3.41534 -18.0047
lclavicle -2.48481e-015 5.1684e-015
lhumerus 68.0413 8.54361 111.448
lradius 9.18212
lwrist -90.8173
lhand -20.6035 -0.821493
lfingers 7.12502
lthumb 5.75717 29.0803
rfemur -49.4328 -26.5907 4.78635
rtibia 113.251
rfoot -8.07141 17.8245
rtoes -13.5649
lfemur -51.9242 26.8411 -2.78535
ltibia 112.222
lfoot -20.2315 -20.8731
ltoes -1.74112
124
root 0.985404 12.1831 -0.656745 40.369 -87.1541 -56.7922
lowerback 50.5672 -4.23444 6.28968
upperback 3.33631 -3.08581 -1.50789
thorax -17.4298 -2.08473 -2.95583
lowerneck 9.21783 1.75365 -2.12973
upperneck -4.48382 1.99084 -1.1701
head -3.07094 1.07063 -0.116946
rclavicle 1.97791e-014 3.37934e-015
rhumerus 64.9389 -1.82869 -104.717
rradius 9.20591
rwrist 68.429
rhand -22.6685 11.6946
rfingers 7.12502
rthumb 3.76318 -18.2519
lclavicle 1.97791e-014 3.37934e-015
lhumerus 68.0785 8.4278 111.457
lradius 9.13767
lwrist -90.8072
lhand -20.24 -0.578071
lfingers 7.12502
lthumb 6.10812 29.3139
rfemur -48.5102 -25.4209 5.36028
rtibia 111.458
rfoot -7.78409 16.8479
rtoes -13.4653
lfemur -50.8665 25.7871 -3.19556
ltibia 110.429
lfoot -19.9803 -20.169
ltoes -1.71455
